<?xml version="1.0" standalone="no"?>
 <!DOCTYPE svg PUBLIC "-//W3C//DTD SVG 1.1//EN" 
 "http://www.w3.org/Graphics/SVG/1.1/DTD/svg11.dtd"> 
<svg xmlns="http://www.w3.org/2000/svg" version="1.1" 
    width="29.7002cm" height="21.0007cm" viewBox="0 0 116930 82680 ">
<title>SVG Picture created as DCDCConverter.svg date 2020/04/07 14:53:54 </title>
  <desc>Picture generated by Eeschema-SVG </desc>
<g style="fill:#000000; fill-opacity:1;stroke:#000000; stroke-opacity:1;
stroke-linecap:round; stroke-linejoin:round; "
 transform="translate(0 0) scale(1 1)">
</g>
<g style="fill:#000000; fill-opacity:0.0; 
stroke:#000000; stroke-width:-10; stroke-opacity:1; 
stroke-linecap:round; stroke-linejoin:round;">
</g>
<g style="fill:#840000; fill-opacity:0.0; 
stroke:#840000; stroke-width:-10; stroke-opacity:1; 
stroke-linecap:round; stroke-linejoin:round;">
</g>
<g style="fill:#840000; fill-opacity:0.0; 
stroke:#840000; stroke-width:100; stroke-opacity:1; 
stroke-linecap:round; stroke-linejoin:round;">
</g>
<g style="fill:#840000; fill-opacity:0.0; 
stroke:#840000; stroke-width:60; stroke-opacity:1; 
stroke-linecap:round; stroke-linejoin:round;">
<rect x="69690" y="65360" width="42520" height="12600" rx="0" />
</g>
<g style="fill:#840000; fill-opacity:0.0; 
stroke:#840000; stroke-width:100; stroke-opacity:1; 
stroke-linecap:round; stroke-linejoin:round;">
</g>
<g style="fill:#840000; fill-opacity:0.0; 
stroke:#840000; stroke-width:60; stroke-opacity:1; 
stroke-linecap:round; stroke-linejoin:round;">
<rect x="3940" y="3940" width="109050" height="74800" rx="0" />
</g>
<g style="fill:#840000; fill-opacity:0.0; 
stroke:#840000; stroke-width:100; stroke-opacity:1; 
stroke-linecap:round; stroke-linejoin:round;">
</g>
<g style="fill:#840000; fill-opacity:0.0; 
stroke:#840000; stroke-width:60; stroke-opacity:1; 
stroke-linecap:round; stroke-linejoin:round;">
<rect x="4720" y="4720" width="107490" height="73240" rx="0" />
</g>
<g style="fill:#840000; fill-opacity:0.0; 
stroke:#840000; stroke-width:100; stroke-opacity:1; 
stroke-linecap:round; stroke-linejoin:round;">
</g>
<g style="fill:#840000; fill-opacity:0.0; 
stroke:#840000; stroke-width:60; stroke-opacity:1; 
stroke-linecap:round; stroke-linejoin:round;">
<path d="M23620 4720
L23620 3940
" />
</g>
<g style="fill:#840000; fill-opacity:0.0; 
stroke:#840000; stroke-width:100; stroke-opacity:1; 
stroke-linecap:round; stroke-linejoin:round;">
</g>
<g style="fill:#840000; fill-opacity:0.0; 
stroke:#840000; stroke-width:60; stroke-opacity:1; 
stroke-linecap:round; stroke-linejoin:round;">
<path d="M43310 4720
L43310 3940
" />
</g>
<g style="fill:#840000; fill-opacity:0.0; 
stroke:#840000; stroke-width:100; stroke-opacity:1; 
stroke-linecap:round; stroke-linejoin:round;">
</g>
<g style="fill:#840000; fill-opacity:0.0; 
stroke:#840000; stroke-width:60; stroke-opacity:1; 
stroke-linecap:round; stroke-linejoin:round;">
<path d="M62990 4720
L62990 3940
" />
</g>
<g style="fill:#840000; fill-opacity:0.0; 
stroke:#840000; stroke-width:100; stroke-opacity:1; 
stroke-linecap:round; stroke-linejoin:round;">
</g>
<g style="fill:#840000; fill-opacity:0.0; 
stroke:#840000; stroke-width:60; stroke-opacity:1; 
stroke-linecap:round; stroke-linejoin:round;">
<path d="M82680 4720
L82680 3940
" />
</g>
<g style="fill:#840000; fill-opacity:0.0; 
stroke:#840000; stroke-width:100; stroke-opacity:1; 
stroke-linecap:round; stroke-linejoin:round;">
</g>
<g style="fill:#840000; fill-opacity:0.0; 
stroke:#840000; stroke-width:60; stroke-opacity:1; 
stroke-linecap:round; stroke-linejoin:round;">
<path d="M102360 4720
L102360 3940
" />
</g>
<g style="fill:#840000; fill-opacity:0.0; 
stroke:#840000; stroke-width:100; stroke-opacity:1; 
stroke-linecap:round; stroke-linejoin:round;">
</g>
<g style="fill:#840000; fill-opacity:0.0; 
stroke:#840000; stroke-width:60; stroke-opacity:1; 
stroke-linecap:round; stroke-linejoin:round;">
<text x="13780" y="4580"
textLength="550" font-size="680" lengthAdjust="spacingAndGlyphs"
text-anchor="start" opacity="0">1</text>
<path d="M14190 4560
L13900 4560
" />
<path d="M14050 4560
L14050 4050
L14000 4120
L13950 4170
L13900 4190
" />
</g>
<g style="fill:#840000; fill-opacity:0.0; 
stroke:#840000; stroke-width:100; stroke-opacity:1; 
stroke-linecap:round; stroke-linejoin:round;">
</g>
<g style="fill:#840000; fill-opacity:0.0; 
stroke:#840000; stroke-width:60; stroke-opacity:1; 
stroke-linecap:round; stroke-linejoin:round;">
<text x="33460" y="4580"
textLength="550" font-size="680" lengthAdjust="spacingAndGlyphs"
text-anchor="start" opacity="0">2</text>
<path d="M33580 4090
L33610 4070
L33660 4050
L33780 4050
L33830 4070
L33850 4090
L33870 4140
L33870 4190
L33850 4260
L33560 4560
L33870 4560
" />
</g>
<g style="fill:#840000; fill-opacity:0.0; 
stroke:#840000; stroke-width:100; stroke-opacity:1; 
stroke-linecap:round; stroke-linejoin:round;">
</g>
<g style="fill:#840000; fill-opacity:0.0; 
stroke:#840000; stroke-width:60; stroke-opacity:1; 
stroke-linecap:round; stroke-linejoin:round;">
<text x="53150" y="4580"
textLength="550" font-size="680" lengthAdjust="spacingAndGlyphs"
text-anchor="start" opacity="0">3</text>
<path d="M53250 4050
L53560 4050
L53390 4240
L53470 4240
L53520 4260
L53540 4290
L53560 4340
L53560 4460
L53540 4510
L53520 4530
L53470 4560
L53320 4560
L53270 4530
L53250 4510
" />
</g>
<g style="fill:#840000; fill-opacity:0.0; 
stroke:#840000; stroke-width:100; stroke-opacity:1; 
stroke-linecap:round; stroke-linejoin:round;">
</g>
<g style="fill:#840000; fill-opacity:0.0; 
stroke:#840000; stroke-width:60; stroke-opacity:1; 
stroke-linecap:round; stroke-linejoin:round;">
<text x="72830" y="4580"
textLength="550" font-size="680" lengthAdjust="spacingAndGlyphs"
text-anchor="start" opacity="0">4</text>
<path d="M73200 4220
L73200 4560
" />
<path d="M73070 4020
L72950 4390
L73270 4390
" />
</g>
<g style="fill:#840000; fill-opacity:0.0; 
stroke:#840000; stroke-width:100; stroke-opacity:1; 
stroke-linecap:round; stroke-linejoin:round;">
</g>
<g style="fill:#840000; fill-opacity:0.0; 
stroke:#840000; stroke-width:60; stroke-opacity:1; 
stroke-linecap:round; stroke-linejoin:round;">
<text x="92520" y="4580"
textLength="550" font-size="680" lengthAdjust="spacingAndGlyphs"
text-anchor="start" opacity="0">5</text>
<path d="M92910 4050
L92670 4050
L92640 4290
L92670 4260
L92720 4240
L92840 4240
L92890 4260
L92910 4290
L92930 4340
L92930 4460
L92910 4510
L92890 4530
L92840 4560
L92720 4560
L92670 4530
L92640 4510
" />
</g>
<g style="fill:#840000; fill-opacity:0.0; 
stroke:#840000; stroke-width:100; stroke-opacity:1; 
stroke-linecap:round; stroke-linejoin:round;">
</g>
<g style="fill:#840000; fill-opacity:0.0; 
stroke:#840000; stroke-width:60; stroke-opacity:1; 
stroke-linecap:round; stroke-linejoin:round;">
<text x="112200" y="4580"
textLength="550" font-size="680" lengthAdjust="spacingAndGlyphs"
text-anchor="start" opacity="0">6</text>
<path d="M112570 4050
L112470 4050
L112420 4070
L112400 4090
L112350 4170
L112320 4260
L112320 4460
L112350 4510
L112370 4530
L112420 4560
L112520 4560
L112570 4530
L112590 4510
L112610 4460
L112610 4340
L112590 4290
L112570 4260
L112520 4240
L112420 4240
L112370 4260
L112350 4290
L112320 4340
" />
</g>
<g style="fill:#840000; fill-opacity:0.0; 
stroke:#840000; stroke-width:100; stroke-opacity:1; 
stroke-linecap:round; stroke-linejoin:round;">
</g>
<g style="fill:#840000; fill-opacity:0.0; 
stroke:#840000; stroke-width:60; stroke-opacity:1; 
stroke-linecap:round; stroke-linejoin:round;">
<path d="M23620 77960
L23620 78740
" />
</g>
<g style="fill:#840000; fill-opacity:0.0; 
stroke:#840000; stroke-width:100; stroke-opacity:1; 
stroke-linecap:round; stroke-linejoin:round;">
</g>
<g style="fill:#840000; fill-opacity:0.0; 
stroke:#840000; stroke-width:60; stroke-opacity:1; 
stroke-linecap:round; stroke-linejoin:round;">
<path d="M43310 77960
L43310 78740
" />
</g>
<g style="fill:#840000; fill-opacity:0.0; 
stroke:#840000; stroke-width:100; stroke-opacity:1; 
stroke-linecap:round; stroke-linejoin:round;">
</g>
<g style="fill:#840000; fill-opacity:0.0; 
stroke:#840000; stroke-width:60; stroke-opacity:1; 
stroke-linecap:round; stroke-linejoin:round;">
<path d="M62990 77960
L62990 78740
" />
</g>
<g style="fill:#840000; fill-opacity:0.0; 
stroke:#840000; stroke-width:100; stroke-opacity:1; 
stroke-linecap:round; stroke-linejoin:round;">
</g>
<g style="fill:#840000; fill-opacity:0.0; 
stroke:#840000; stroke-width:60; stroke-opacity:1; 
stroke-linecap:round; stroke-linejoin:round;">
<path d="M82680 77960
L82680 78740
" />
</g>
<g style="fill:#840000; fill-opacity:0.0; 
stroke:#840000; stroke-width:100; stroke-opacity:1; 
stroke-linecap:round; stroke-linejoin:round;">
</g>
<g style="fill:#840000; fill-opacity:0.0; 
stroke:#840000; stroke-width:60; stroke-opacity:1; 
stroke-linecap:round; stroke-linejoin:round;">
<path d="M102360 77960
L102360 78740
" />
</g>
<g style="fill:#840000; fill-opacity:0.0; 
stroke:#840000; stroke-width:100; stroke-opacity:1; 
stroke-linecap:round; stroke-linejoin:round;">
</g>
<g style="fill:#840000; fill-opacity:0.0; 
stroke:#840000; stroke-width:60; stroke-opacity:1; 
stroke-linecap:round; stroke-linejoin:round;">
<text x="13780" y="78600"
textLength="550" font-size="680" lengthAdjust="spacingAndGlyphs"
text-anchor="start" opacity="0">1</text>
<path d="M14190 78580
L13900 78580
" />
<path d="M14050 78580
L14050 78070
L14000 78140
L13950 78190
L13900 78210
" />
</g>
<g style="fill:#840000; fill-opacity:0.0; 
stroke:#840000; stroke-width:100; stroke-opacity:1; 
stroke-linecap:round; stroke-linejoin:round;">
</g>
<g style="fill:#840000; fill-opacity:0.0; 
stroke:#840000; stroke-width:60; stroke-opacity:1; 
stroke-linecap:round; stroke-linejoin:round;">
<text x="33460" y="78600"
textLength="550" font-size="680" lengthAdjust="spacingAndGlyphs"
text-anchor="start" opacity="0">2</text>
<path d="M33580 78110
L33610 78090
L33660 78070
L33780 78070
L33830 78090
L33850 78110
L33870 78160
L33870 78210
L33850 78280
L33560 78580
L33870 78580
" />
</g>
<g style="fill:#840000; fill-opacity:0.0; 
stroke:#840000; stroke-width:100; stroke-opacity:1; 
stroke-linecap:round; stroke-linejoin:round;">
</g>
<g style="fill:#840000; fill-opacity:0.0; 
stroke:#840000; stroke-width:60; stroke-opacity:1; 
stroke-linecap:round; stroke-linejoin:round;">
<text x="53150" y="78600"
textLength="550" font-size="680" lengthAdjust="spacingAndGlyphs"
text-anchor="start" opacity="0">3</text>
<path d="M53250 78070
L53560 78070
L53390 78260
L53470 78260
L53520 78280
L53540 78310
L53560 78360
L53560 78480
L53540 78530
L53520 78550
L53470 78580
L53320 78580
L53270 78550
L53250 78530
" />
</g>
<g style="fill:#840000; fill-opacity:0.0; 
stroke:#840000; stroke-width:100; stroke-opacity:1; 
stroke-linecap:round; stroke-linejoin:round;">
</g>
<g style="fill:#840000; fill-opacity:0.0; 
stroke:#840000; stroke-width:60; stroke-opacity:1; 
stroke-linecap:round; stroke-linejoin:round;">
<text x="72830" y="78600"
textLength="550" font-size="680" lengthAdjust="spacingAndGlyphs"
text-anchor="start" opacity="0">4</text>
<path d="M73200 78240
L73200 78580
" />
<path d="M73070 78040
L72950 78410
L73270 78410
" />
</g>
<g style="fill:#840000; fill-opacity:0.0; 
stroke:#840000; stroke-width:100; stroke-opacity:1; 
stroke-linecap:round; stroke-linejoin:round;">
</g>
<g style="fill:#840000; fill-opacity:0.0; 
stroke:#840000; stroke-width:60; stroke-opacity:1; 
stroke-linecap:round; stroke-linejoin:round;">
<text x="92520" y="78600"
textLength="550" font-size="680" lengthAdjust="spacingAndGlyphs"
text-anchor="start" opacity="0">5</text>
<path d="M92910 78070
L92670 78070
L92640 78310
L92670 78280
L92720 78260
L92840 78260
L92890 78280
L92910 78310
L92930 78360
L92930 78480
L92910 78530
L92890 78550
L92840 78580
L92720 78580
L92670 78550
L92640 78530
" />
</g>
<g style="fill:#840000; fill-opacity:0.0; 
stroke:#840000; stroke-width:100; stroke-opacity:1; 
stroke-linecap:round; stroke-linejoin:round;">
</g>
<g style="fill:#840000; fill-opacity:0.0; 
stroke:#840000; stroke-width:60; stroke-opacity:1; 
stroke-linecap:round; stroke-linejoin:round;">
<text x="112200" y="78600"
textLength="550" font-size="680" lengthAdjust="spacingAndGlyphs"
text-anchor="start" opacity="0">6</text>
<path d="M112570 78070
L112470 78070
L112420 78090
L112400 78110
L112350 78190
L112320 78280
L112320 78480
L112350 78530
L112370 78550
L112420 78580
L112520 78580
L112570 78550
L112590 78530
L112610 78480
L112610 78360
L112590 78310
L112570 78280
L112520 78260
L112420 78260
L112370 78280
L112350 78310
L112320 78360
" />
</g>
<g style="fill:#840000; fill-opacity:0.0; 
stroke:#840000; stroke-width:100; stroke-opacity:1; 
stroke-linecap:round; stroke-linejoin:round;">
</g>
<g style="fill:#840000; fill-opacity:0.0; 
stroke:#840000; stroke-width:60; stroke-opacity:1; 
stroke-linecap:round; stroke-linejoin:round;">
<path d="M3940 23620
L4720 23620
" />
</g>
<g style="fill:#840000; fill-opacity:0.0; 
stroke:#840000; stroke-width:100; stroke-opacity:1; 
stroke-linecap:round; stroke-linejoin:round;">
</g>
<g style="fill:#840000; fill-opacity:0.0; 
stroke:#840000; stroke-width:60; stroke-opacity:1; 
stroke-linecap:round; stroke-linejoin:round;">
<path d="M3940 43310
L4720 43310
" />
</g>
<g style="fill:#840000; fill-opacity:0.0; 
stroke:#840000; stroke-width:100; stroke-opacity:1; 
stroke-linecap:round; stroke-linejoin:round;">
</g>
<g style="fill:#840000; fill-opacity:0.0; 
stroke:#840000; stroke-width:60; stroke-opacity:1; 
stroke-linecap:round; stroke-linejoin:round;">
<path d="M3940 62990
L4720 62990
" />
</g>
<g style="fill:#840000; fill-opacity:0.0; 
stroke:#840000; stroke-width:100; stroke-opacity:1; 
stroke-linecap:round; stroke-linejoin:round;">
</g>
<g style="fill:#840000; fill-opacity:0.0; 
stroke:#840000; stroke-width:60; stroke-opacity:1; 
stroke-linecap:round; stroke-linejoin:round;">
<text x="4330" y="14030"
textLength="500" font-size="680" lengthAdjust="spacingAndGlyphs"
text-anchor="middle" opacity="0">A</text>
<path d="M4200 13860
L4450 13860
" />
<path d="M4160 14010
L4330 13500
L4500 14010
" />
</g>
<g style="fill:#840000; fill-opacity:0.0; 
stroke:#840000; stroke-width:100; stroke-opacity:1; 
stroke-linecap:round; stroke-linejoin:round;">
</g>
<g style="fill:#840000; fill-opacity:0.0; 
stroke:#840000; stroke-width:60; stroke-opacity:1; 
stroke-linecap:round; stroke-linejoin:round;">
<text x="4330" y="33710"
textLength="570" font-size="680" lengthAdjust="spacingAndGlyphs"
text-anchor="middle" opacity="0">B</text>
<path d="M4360 33420
L4430 33440
L4460 33470
L4480 33520
L4480 33590
L4460 33640
L4430 33660
L4390 33690
L4190 33690
L4190 33180
L4360 33180
L4410 33200
L4430 33220
L4460 33270
L4460 33320
L4430 33370
L4410 33390
L4360 33420
L4190 33420
" />
</g>
<g style="fill:#840000; fill-opacity:0.0; 
stroke:#840000; stroke-width:100; stroke-opacity:1; 
stroke-linecap:round; stroke-linejoin:round;">
</g>
<g style="fill:#840000; fill-opacity:0.0; 
stroke:#840000; stroke-width:60; stroke-opacity:1; 
stroke-linecap:round; stroke-linejoin:round;">
<text x="4330" y="53400"
textLength="570" font-size="680" lengthAdjust="spacingAndGlyphs"
text-anchor="middle" opacity="0">C</text>
<path d="M4480 53330
L4460 53350
L4390 53380
L4340 53380
L4260 53350
L4220 53300
L4190 53250
L4170 53160
L4170 53080
L4190 52990
L4220 52940
L4260 52890
L4340 52870
L4390 52870
L4460 52890
L4480 52910
" />
</g>
<g style="fill:#840000; fill-opacity:0.0; 
stroke:#840000; stroke-width:100; stroke-opacity:1; 
stroke-linecap:round; stroke-linejoin:round;">
</g>
<g style="fill:#840000; fill-opacity:0.0; 
stroke:#840000; stroke-width:60; stroke-opacity:1; 
stroke-linecap:round; stroke-linejoin:round;">
<text x="4330" y="73080"
textLength="570" font-size="680" lengthAdjust="spacingAndGlyphs"
text-anchor="middle" opacity="0">D</text>
<path d="M4190 73060
L4190 72550
L4310 72550
L4390 72570
L4430 72620
L4460 72670
L4480 72760
L4480 72840
L4460 72930
L4430 72980
L4390 73030
L4310 73060
L4190 73060
" />
</g>
<g style="fill:#840000; fill-opacity:0.0; 
stroke:#840000; stroke-width:100; stroke-opacity:1; 
stroke-linecap:round; stroke-linejoin:round;">
</g>
<g style="fill:#840000; fill-opacity:0.0; 
stroke:#840000; stroke-width:60; stroke-opacity:1; 
stroke-linecap:round; stroke-linejoin:round;">
<path d="M112990 23620
L112210 23620
" />
</g>
<g style="fill:#840000; fill-opacity:0.0; 
stroke:#840000; stroke-width:100; stroke-opacity:1; 
stroke-linecap:round; stroke-linejoin:round;">
</g>
<g style="fill:#840000; fill-opacity:0.0; 
stroke:#840000; stroke-width:60; stroke-opacity:1; 
stroke-linecap:round; stroke-linejoin:round;">
<path d="M112990 43310
L112210 43310
" />
</g>
<g style="fill:#840000; fill-opacity:0.0; 
stroke:#840000; stroke-width:100; stroke-opacity:1; 
stroke-linecap:round; stroke-linejoin:round;">
</g>
<g style="fill:#840000; fill-opacity:0.0; 
stroke:#840000; stroke-width:60; stroke-opacity:1; 
stroke-linecap:round; stroke-linejoin:round;">
<path d="M112990 62990
L112210 62990
" />
</g>
<g style="fill:#840000; fill-opacity:0.0; 
stroke:#840000; stroke-width:100; stroke-opacity:1; 
stroke-linecap:round; stroke-linejoin:round;">
</g>
<g style="fill:#840000; fill-opacity:0.0; 
stroke:#840000; stroke-width:60; stroke-opacity:1; 
stroke-linecap:round; stroke-linejoin:round;">
<text x="112600" y="14030"
textLength="500" font-size="680" lengthAdjust="spacingAndGlyphs"
text-anchor="middle" opacity="0">A</text>
<path d="M112470 13860
L112720 13860
" />
<path d="M112430 14010
L112600 13500
L112770 14010
" />
</g>
<g style="fill:#840000; fill-opacity:0.0; 
stroke:#840000; stroke-width:100; stroke-opacity:1; 
stroke-linecap:round; stroke-linejoin:round;">
</g>
<g style="fill:#840000; fill-opacity:0.0; 
stroke:#840000; stroke-width:60; stroke-opacity:1; 
stroke-linecap:round; stroke-linejoin:round;">
<text x="112600" y="33710"
textLength="570" font-size="680" lengthAdjust="spacingAndGlyphs"
text-anchor="middle" opacity="0">B</text>
<path d="M112630 33420
L112700 33440
L112730 33470
L112750 33520
L112750 33590
L112730 33640
L112700 33660
L112660 33690
L112460 33690
L112460 33180
L112630 33180
L112680 33200
L112700 33220
L112730 33270
L112730 33320
L112700 33370
L112680 33390
L112630 33420
L112460 33420
" />
</g>
<g style="fill:#840000; fill-opacity:0.0; 
stroke:#840000; stroke-width:100; stroke-opacity:1; 
stroke-linecap:round; stroke-linejoin:round;">
</g>
<g style="fill:#840000; fill-opacity:0.0; 
stroke:#840000; stroke-width:60; stroke-opacity:1; 
stroke-linecap:round; stroke-linejoin:round;">
<text x="112600" y="53400"
textLength="570" font-size="680" lengthAdjust="spacingAndGlyphs"
text-anchor="middle" opacity="0">C</text>
<path d="M112750 53330
L112730 53350
L112660 53380
L112610 53380
L112530 53350
L112490 53300
L112460 53250
L112440 53160
L112440 53080
L112460 52990
L112490 52940
L112530 52890
L112610 52870
L112660 52870
L112730 52890
L112750 52910
" />
</g>
<g style="fill:#840000; fill-opacity:0.0; 
stroke:#840000; stroke-width:100; stroke-opacity:1; 
stroke-linecap:round; stroke-linejoin:round;">
</g>
<g style="fill:#840000; fill-opacity:0.0; 
stroke:#840000; stroke-width:60; stroke-opacity:1; 
stroke-linecap:round; stroke-linejoin:round;">
<text x="112600" y="73080"
textLength="570" font-size="680" lengthAdjust="spacingAndGlyphs"
text-anchor="middle" opacity="0">D</text>
<path d="M112460 73060
L112460 72550
L112580 72550
L112660 72570
L112700 72620
L112730 72670
L112750 72760
L112750 72840
L112730 72930
L112700 72980
L112660 73030
L112580 73060
L112460 73060
" />
</g>
<g style="fill:#840000; fill-opacity:0.0; 
stroke:#840000; stroke-width:100; stroke-opacity:1; 
stroke-linecap:round; stroke-linejoin:round;">
</g>
<g style="fill:#840000; fill-opacity:0.0; 
stroke:#840000; stroke-width:60; stroke-opacity:1; 
stroke-linecap:round; stroke-linejoin:round;">
<text x="78740" y="76320"
textLength="2760" font-size="780" lengthAdjust="spacingAndGlyphs"
text-anchor="start" opacity="0">Date: </text>
<path d="M78910 76290
L78910 75700
L79050 75700
L79130 75730
L79190 75790
L79210 75840
L79240 75950
L79240 76040
L79210 76150
L79190 76210
L79130 76260
L79050 76290
L78910 76290
" />
<path d="M79750 76290
L79750 75980
L79720 75930
L79660 75900
L79550 75900
L79500 75930
" />
<path d="M79750 76260
L79690 76290
L79550 76290
L79500 76260
L79470 76210
L79470 76150
L79500 76100
L79550 76070
L79690 76070
L79750 76040
" />
<path d="M79950 75900
L80170 75900
" />
<path d="M80030 75700
L80030 76210
L80060 76260
L80110 76290
L80170 76290
" />
<path d="M80590 76260
L80540 76290
L80420 76290
L80370 76260
L80340 76210
L80340 75980
L80370 75930
L80420 75900
L80540 75900
L80590 75930
L80620 75980
L80620 76040
L80340 76100
" />
<path d="M80870 76240
L80900 76260
L80870 76290
L80840 76260
L80870 76240
L80870 76290
" />
<path d="M80870 75930
L80900 75950
L80870 75980
L80840 75950
L80870 75930
L80870 75980
" />
</g>
<g style="fill:#840000; fill-opacity:0.0; 
stroke:#840000; stroke-width:100; stroke-opacity:1; 
stroke-linecap:round; stroke-linejoin:round;">
</g>
<g style="fill:#840000; fill-opacity:0.0; 
stroke:#840000; stroke-width:60; stroke-opacity:1; 
stroke-linecap:round; stroke-linejoin:round;">
<path d="M69690 76580
L112210 76580
" />
</g>
<g style="fill:#840000; fill-opacity:0.0; 
stroke:#840000; stroke-width:100; stroke-opacity:1; 
stroke-linecap:round; stroke-linejoin:round;">
</g>
<g style="fill:#840000; fill-opacity:0.0; 
stroke:#840000; stroke-width:60; stroke-opacity:1; 
stroke-linecap:round; stroke-linejoin:round;">
<text x="70080" y="77420"
textLength="23550" font-size="780" lengthAdjust="spacingAndGlyphs"
text-anchor="start" opacity="0">KiCad E.D.A.  kicad 5.1.5-52549c5~84~ubuntu18.04.1</text>
<path d="M70250 77390
L70250 76800
" />
<path d="M70580 77390
L70330 77050
" />
<path d="M70580 76800
L70250 77140
" />
<path d="M70840 77390
L70840 77000
" />
<path d="M70840 76800
L70810 76830
L70840 76860
L70860 76830
L70840 76800
L70840 76860
" />
<path d="M71450 77340
L71430 77360
L71340 77390
L71290 77390
L71200 77360
L71140 77310
L71120 77250
L71090 77140
L71090 77050
L71120 76940
L71140 76890
L71200 76830
L71290 76800
L71340 76800
L71430 76830
L71450 76860
" />
<path d="M71960 77390
L71960 77080
L71930 77030
L71880 77000
L71760 77000
L71710 77030
" />
<path d="M71960 77360
L71900 77390
L71760 77390
L71710 77360
L71680 77310
L71680 77250
L71710 77200
L71760 77170
L71900 77170
L71960 77140
" />
<path d="M72490 77390
L72490 76800
" />
<path d="M72490 77360
L72440 77390
L72320 77390
L72270 77360
L72240 77340
L72210 77280
L72210 77110
L72240 77050
L72270 77030
L72320 77000
L72440 77000
L72490 77030
" />
<path d="M73220 77080
L73420 77080
" />
<path d="M73500 77390
L73220 77390
L73220 76800
L73500 76800
" />
<path d="M73760 77340
L73790 77360
L73760 77390
L73730 77360
L73760 77340
L73760 77390
" />
<path d="M74040 77390
L74040 76800
L74180 76800
L74260 76830
L74320 76890
L74350 76940
L74380 77050
L74380 77140
L74350 77250
L74320 77310
L74260 77360
L74180 77390
L74040 77390
" />
<path d="M74630 77340
L74660 77360
L74630 77390
L74600 77360
L74630 77340
L74630 77390
" />
<path d="M74880 77220
L75160 77220
" />
<path d="M74830 77390
L75020 76800
L75220 77390
" />
<path d="M75420 77340
L75440 77360
L75420 77390
L75390 77360
L75420 77340
L75420 77390
" />
<path d="M76600 77390
L76600 76800
" />
<path d="M76650 77170
L76820 77390
" />
<path d="M76820 77000
L76600 77220
" />
<path d="M77070 77390
L77070 77000
" />
<path d="M77070 76800
L77040 76830
L77070 76860
L77100 76830
L77070 76800
L77070 76860
" />
<path d="M77610 77360
L77550 77390
L77440 77390
L77380 77360
L77350 77340
L77330 77280
L77330 77110
L77350 77050
L77380 77030
L77440 77000
L77550 77000
L77610 77030
" />
<path d="M78110 77390
L78110 77080
L78080 77030
L78030 77000
L77920 77000
L77860 77030
" />
<path d="M78110 77360
L78060 77390
L77920 77390
L77860 77360
L77830 77310
L77830 77250
L77860 77200
L77920 77170
L78060 77170
L78110 77140
" />
<path d="M78650 77390
L78650 76800
" />
<path d="M78650 77360
L78590 77390
L78480 77390
L78420 77360
L78390 77340
L78370 77280
L78370 77110
L78390 77050
L78420 77030
L78480 77000
L78590 77000
L78650 77030
" />
<path d="M79660 76800
L79380 76800
L79350 77080
L79380 77050
L79430 77030
L79570 77030
L79630 77050
L79660 77080
L79690 77140
L79690 77280
L79660 77340
L79630 77360
L79570 77390
L79430 77390
L79380 77360
L79350 77340
" />
<path d="M79940 77340
L79970 77360
L79940 77390
L79910 77360
L79940 77340
L79940 77390
" />
<path d="M80530 77390
L80190 77390
" />
<path d="M80360 77390
L80360 76800
L80300 76890
L80250 76940
L80190 76970
" />
<path d="M80780 77340
L80810 77360
L80780 77390
L80750 77360
L80780 77340
L80780 77390
" />
<path d="M81340 76800
L81060 76800
L81030 77080
L81060 77050
L81120 77030
L81260 77030
L81320 77050
L81340 77080
L81370 77140
L81370 77280
L81340 77340
L81320 77360
L81260 77390
L81120 77390
L81060 77360
L81030 77340
" />
<path d="M81620 77170
L82070 77170
" />
<path d="M82640 76800
L82350 76800
L82330 77080
L82350 77050
L82410 77030
L82550 77030
L82610 77050
L82640 77080
L82660 77140
L82660 77280
L82640 77340
L82610 77360
L82550 77390
L82410 77390
L82350 77360
L82330 77340
" />
<path d="M82890 76860
L82920 76830
L82970 76800
L83110 76800
L83170 76830
L83200 76860
L83230 76910
L83230 76970
L83200 77050
L82860 77390
L83230 77390
" />
<path d="M83760 76800
L83480 76800
L83450 77080
L83480 77050
L83530 77030
L83680 77030
L83730 77050
L83760 77080
L83790 77140
L83790 77280
L83760 77340
L83730 77360
L83680 77390
L83530 77390
L83480 77360
L83450 77340
" />
<path d="M84290 77000
L84290 77390
" />
<path d="M84150 76770
L84010 77200
L84380 77200
" />
<path d="M84630 77390
L84740 77390
L84800 77360
L84830 77340
L84880 77250
L84910 77140
L84910 76910
L84880 76860
L84860 76830
L84800 76800
L84690 76800
L84630 76830
L84600 76860
L84570 76910
L84570 77050
L84600 77110
L84630 77140
L84690 77170
L84800 77170
L84860 77140
L84880 77110
L84910 77050
" />
<path d="M85420 77360
L85360 77390
L85250 77390
L85190 77360
L85160 77340
L85140 77280
L85140 77110
L85160 77050
L85190 77030
L85250 77000
L85360 77000
L85420 77030
" />
<path d="M85950 76800
L85670 76800
L85640 77080
L85670 77050
L85730 77030
L85870 77030
L85920 77050
L85950 77080
L85980 77140
L85980 77280
L85950 77340
L85920 77360
L85870 77390
L85730 77390
L85670 77360
L85640 77340
" />
<path d="M86090 76640
L86650 76640
" />
<path d="M86320 77050
L86260 77030
L86230 77000
L86200 76940
L86200 76910
L86230 76860
L86260 76830
L86320 76800
L86430 76800
L86480 76830
L86510 76860
L86540 76910
L86540 76940
L86510 77000
L86480 77030
L86430 77050
L86320 77050
L86260 77080
L86230 77110
L86200 77170
L86200 77280
L86230 77340
L86260 77360
L86320 77390
L86430 77390
L86480 77360
L86510 77340
L86540 77280
L86540 77170
L86510 77110
L86480 77080
L86430 77050
" />
<path d="M86650 76640
L87220 76640
" />
<path d="M87050 77000
L87050 77390
" />
<path d="M86910 76770
L86770 77200
L87130 77200
" />
<path d="M87610 77000
L87610 77390
" />
<path d="M87360 77000
L87360 77310
L87380 77360
L87440 77390
L87520 77390
L87580 77360
L87610 77340
" />
<path d="M87890 77390
L87890 76800
" />
<path d="M87890 77030
L87950 77000
L88060 77000
L88110 77030
L88140 77050
L88170 77110
L88170 77280
L88140 77340
L88110 77360
L88060 77390
L87950 77390
L87890 77360
" />
<path d="M88680 77000
L88680 77390
" />
<path d="M88420 77000
L88420 77310
L88450 77360
L88510 77390
L88590 77390
L88650 77360
L88680 77340
" />
<path d="M88960 77000
L88960 77390
" />
<path d="M88960 77050
L88990 77030
L89040 77000
L89130 77000
L89180 77030
L89210 77080
L89210 77390
" />
<path d="M89410 77000
L89630 77000
" />
<path d="M89490 76800
L89490 77310
L89520 77360
L89580 77390
L89630 77390
" />
<path d="M90080 77000
L90080 77390
" />
<path d="M89830 77000
L89830 77310
L89860 77360
L89910 77390
L90000 77390
L90050 77360
L90080 77340
" />
<path d="M90670 77390
L90330 77390
" />
<path d="M90500 77390
L90500 76800
L90450 76890
L90390 76940
L90330 76970
" />
<path d="M91010 77050
L90950 77030
L90920 77000
L90900 76940
L90900 76910
L90920 76860
L90950 76830
L91010 76800
L91120 76800
L91180 76830
L91200 76860
L91230 76910
L91230 76940
L91200 77000
L91180 77030
L91120 77050
L91010 77050
L90950 77080
L90920 77110
L90900 77170
L90900 77280
L90920 77340
L90950 77360
L91010 77390
L91120 77390
L91180 77360
L91200 77340
L91230 77280
L91230 77170
L91200 77110
L91180 77080
L91120 77050
" />
<path d="M91490 77340
L91510 77360
L91490 77390
L91460 77360
L91490 77340
L91490 77390
" />
<path d="M91880 76800
L91940 76800
L91990 76830
L92020 76860
L92050 76910
L92080 77030
L92080 77170
L92050 77280
L92020 77340
L91990 77360
L91940 77390
L91880 77390
L91820 77360
L91790 77340
L91770 77280
L91740 77170
L91740 77030
L91770 76910
L91790 76860
L91820 76830
L91880 76800
" />
<path d="M92580 77000
L92580 77390
" />
<path d="M92440 76770
L92300 77200
L92670 77200
" />
<path d="M92890 77340
L92920 77360
L92890 77390
L92860 77360
L92890 77340
L92890 77390
" />
<path d="M93480 77390
L93140 77390
" />
<path d="M93310 77390
L93310 76800
L93260 76890
L93200 76940
L93140 76970
" />
</g>
<g style="fill:#840000; fill-opacity:0.0; 
stroke:#840000; stroke-width:100; stroke-opacity:1; 
stroke-linecap:round; stroke-linejoin:round;">
</g>
<g style="fill:#840000; fill-opacity:0.0; 
stroke:#840000; stroke-width:60; stroke-opacity:1; 
stroke-linecap:round; stroke-linejoin:round;">
<path d="M69690 75400
L112210 75400
" />
</g>
<g style="fill:#840000; fill-opacity:0.0; 
stroke:#840000; stroke-width:100; stroke-opacity:1; 
stroke-linecap:round; stroke-linejoin:round;">
</g>
<g style="fill:#840000; fill-opacity:0.0; 
stroke:#840000; stroke-width:120; stroke-opacity:1; 
stroke-linecap:round; stroke-linejoin:round;">
<text x="103540" y="76320"
textLength="2340" font-size="780" lengthAdjust="spacingAndGlyphs"
text-anchor="start" opacity="0">Rev: </text>
<path d="M104090 76290
L103890 76010
" />
<path d="M103750 76290
L103750 75700
L103980 75700
L104030 75730
L104060 75760
L104090 75810
L104090 75900
L104060 75950
L104030 75980
L103980 76010
L103750 76010
" />
<path d="M104570 76260
L104510 76290
L104400 76290
L104340 76260
L104320 76210
L104320 75980
L104340 75930
L104400 75900
L104510 75900
L104570 75930
L104600 75980
L104600 76040
L104320 76100
" />
<path d="M104790 75900
L104930 76290
L105070 75900
" />
<path d="M105300 76240
L105330 76260
L105300 76290
L105270 76260
L105300 76240
L105300 76290
" />
<path d="M105300 75930
L105330 75950
L105300 75980
L105270 75950
L105300 75930
L105300 75980
" />
</g>
<g style="fill:#840000; fill-opacity:0.0; 
stroke:#840000; stroke-width:100; stroke-opacity:1; 
stroke-linecap:round; stroke-linejoin:round;">
</g>
<g style="fill:#840000; fill-opacity:0.0; 
stroke:#840000; stroke-width:60; stroke-opacity:1; 
stroke-linecap:round; stroke-linejoin:round;">
<text x="70080" y="76320"
textLength="3780" font-size="780" lengthAdjust="spacingAndGlyphs"
text-anchor="start" opacity="0">Size: A4</text>
<path d="M70220 76260
L70300 76290
L70440 76290
L70500 76260
L70530 76240
L70550 76180
L70550 76120
L70530 76070
L70500 76040
L70440 76010
L70330 75980
L70270 75950
L70250 75930
L70220 75870
L70220 75810
L70250 75760
L70270 75730
L70330 75700
L70470 75700
L70550 75730
" />
<path d="M70810 76290
L70810 75900
" />
<path d="M70810 75700
L70780 75730
L70810 75760
L70840 75730
L70810 75700
L70810 75760
" />
<path d="M71030 75900
L71340 75900
L71030 76290
L71340 76290
" />
<path d="M71790 76260
L71730 76290
L71620 76290
L71570 76260
L71540 76210
L71540 75980
L71570 75930
L71620 75900
L71730 75900
L71790 75930
L71820 75980
L71820 76040
L71540 76100
" />
<path d="M72070 76240
L72100 76260
L72070 76290
L72040 76260
L72070 76240
L72070 76290
" />
<path d="M72070 75930
L72100 75950
L72070 75980
L72040 75950
L72070 75930
L72070 75980
" />
<path d="M72770 76120
L73060 76120
" />
<path d="M72720 76290
L72910 75700
L73110 76290
" />
<path d="M73560 75900
L73560 76290
" />
<path d="M73420 75670
L73280 76100
L73650 76100
" />
</g>
<g style="fill:#840000; fill-opacity:0.0; 
stroke:#840000; stroke-width:100; stroke-opacity:1; 
stroke-linecap:round; stroke-linejoin:round;">
</g>
<g style="fill:#840000; fill-opacity:0.0; 
stroke:#840000; stroke-width:60; stroke-opacity:1; 
stroke-linecap:round; stroke-linejoin:round;">
<text x="103540" y="77420"
textLength="3350" font-size="780" lengthAdjust="spacingAndGlyphs"
text-anchor="start" opacity="0">Id: 1/4</text>
<path d="M103710 77390
L103710 76800
" />
<path d="M104240 77390
L104240 76800
" />
<path d="M104240 77360
L104180 77390
L104070 77390
L104010 77360
L103990 77340
L103960 77280
L103960 77110
L103990 77050
L104010 77030
L104070 77000
L104180 77000
L104240 77030
" />
<path d="M104520 77340
L104550 77360
L104520 77390
L104490 77360
L104520 77340
L104520 77390
" />
<path d="M104520 77030
L104550 77050
L104520 77080
L104490 77050
L104520 77030
L104520 77080
" />
<path d="M105560 77390
L105220 77390
" />
<path d="M105390 77390
L105390 76800
L105340 76890
L105280 76940
L105220 76970
" />
<path d="M106230 76770
L105730 77530
" />
<path d="M106680 77000
L106680 77390
" />
<path d="M106540 76770
L106400 77200
L106770 77200
" />
</g>
<g style="fill:#840000; fill-opacity:0.0; 
stroke:#840000; stroke-width:100; stroke-opacity:1; 
stroke-linecap:round; stroke-linejoin:round;">
</g>
<g style="fill:#840000; fill-opacity:0.0; 
stroke:#840000; stroke-width:60; stroke-opacity:1; 
stroke-linecap:round; stroke-linejoin:round;">
<path d="M69690 73820
L112210 73820
" />
</g>
<g style="fill:#840000; fill-opacity:0.0; 
stroke:#840000; stroke-width:100; stroke-opacity:1; 
stroke-linecap:round; stroke-linejoin:round;">
</g>
<g style="fill:#840000; fill-opacity:0.0; 
stroke:#840000; stroke-width:160; stroke-opacity:1; 
stroke-linecap:round; stroke-linejoin:round;">
<text x="70080" y="74920"
textLength="18870" font-size="1050" lengthAdjust="spacingAndGlyphs"
text-anchor="start" opacity="0">Title: DCDC Converter Topology</text>
<path d="M70360 74090
L70810 74090
" />
<path d="M70480 74880
L70580 74090
" />
<path d="M70970 74880
L71040 74360
" />
<path d="M71070 74090
L71030 74130
L71060 74170
L71110 74130
L71070 74090
L71060 74170
" />
<path d="M71300 74360
L71600 74360
" />
<path d="M71450 74090
L71360 74770
L71390 74840
L71460 74880
L71540 74880
" />
<path d="M71910 74880
L71840 74840
L71820 74770
L71900 74090
" />
<path d="M72520 74840
L72440 74880
L72290 74880
L72220 74840
L72190 74770
L72230 74470
L72280 74390
L72360 74360
L72510 74360
L72580 74390
L72610 74470
L72600 74540
L72210 74620
" />
<path d="M72900 74810
L72930 74840
L72890 74880
L72860 74840
L72900 74810
L72890 74880
" />
<path d="M72950 74390
L72990 74430
L72940 74470
L72910 74430
L72950 74390
L72940 74470
" />
<path d="M73870 74880
L73970 74090
L74160 74090
L74270 74130
L74330 74210
L74360 74280
L74380 74430
L74360 74540
L74310 74690
L74260 74770
L74180 74840
L74060 74880
L73870 74880
" />
<path d="M75120 74810
L75080 74840
L74960 74880
L74890 74880
L74780 74840
L74710 74770
L74680 74690
L74670 74540
L74680 74430
L74740 74280
L74780 74210
L74870 74130
L74980 74090
L75060 74090
L75170 74130
L75200 74170
" />
<path d="M75450 74880
L75550 74090
L75740 74090
L75850 74130
L75910 74210
L75940 74280
L75960 74430
L75940 74540
L75890 74690
L75840 74770
L75760 74840
L75640 74880
L75450 74880
" />
<path d="M76700 74810
L76660 74840
L76540 74880
L76470 74880
L76360 74840
L76290 74770
L76260 74690
L76250 74540
L76260 74430
L76320 74280
L76360 74210
L76450 74130
L76560 74090
L76640 74090
L76750 74130
L76780 74170
" />
<path d="M78090 74810
L78050 74840
L77930 74880
L77860 74880
L77750 74840
L77680 74770
L77660 74690
L77640 74540
L77650 74430
L77710 74280
L77750 74210
L77840 74130
L77960 74090
L78030 74090
L78140 74130
L78170 74170
" />
<path d="M78540 74880
L78460 74840
L78430 74810
L78400 74730
L78430 74510
L78480 74430
L78520 74390
L78600 74360
L78710 74360
L78780 74390
L78820 74430
L78850 74510
L78820 74730
L78770 74810
L78730 74840
L78650 74880
L78540 74880
" />
<path d="M79200 74360
L79140 74880
" />
<path d="M79190 74430
L79240 74390
L79320 74360
L79430 74360
L79500 74390
L79530 74470
L79480 74880
" />
<path d="M79840 74360
L79960 74880
L80220 74360
" />
<path d="M80760 74840
L80680 74880
L80530 74880
L80460 74840
L80430 74770
L80470 74470
L80510 74390
L80590 74360
L80750 74360
L80820 74390
L80840 74470
L80830 74540
L80450 74620
" />
<path d="M81130 74880
L81200 74360
" />
<path d="M81180 74510
L81220 74430
L81270 74390
L81350 74360
L81420 74360
" />
<path d="M81570 74360
L81870 74360
" />
<path d="M81720 74090
L81630 74770
L81660 74840
L81730 74880
L81810 74880
" />
<path d="M82380 74840
L82300 74880
L82150 74880
L82080 74840
L82050 74770
L82090 74470
L82130 74390
L82210 74360
L82360 74360
L82430 74390
L82460 74470
L82450 74540
L82070 74620
" />
<path d="M82750 74880
L82810 74360
" />
<path d="M82800 74510
L82840 74430
L82880 74390
L82960 74360
L83040 74360
" />
<path d="M83830 74090
L84280 74090
" />
<path d="M83950 74880
L84050 74090
" />
<path d="M84550 74880
L84480 74840
L84450 74810
L84420 74730
L84450 74510
L84500 74430
L84540 74390
L84620 74360
L84730 74360
L84800 74390
L84840 74430
L84860 74510
L84840 74730
L84790 74810
L84750 74840
L84670 74880
L84550 74880
" />
<path d="M85220 74360
L85120 75150
" />
<path d="M85220 74390
L85300 74360
L85450 74360
L85520 74390
L85550 74430
L85580 74510
L85550 74730
L85500 74810
L85460 74840
L85380 74880
L85230 74880
L85160 74840
" />
<path d="M85980 74880
L85910 74840
L85880 74810
L85850 74730
L85880 74510
L85930 74430
L85970 74390
L86050 74360
L86160 74360
L86230 74390
L86270 74430
L86290 74510
L86270 74730
L86220 74810
L86180 74840
L86100 74880
L85980 74880
" />
<path d="M86700 74880
L86630 74840
L86600 74770
L86680 74090
" />
<path d="M87110 74880
L87040 74840
L87010 74810
L86980 74730
L87010 74510
L87060 74430
L87100 74390
L87180 74360
L87290 74360
L87360 74390
L87390 74430
L87420 74510
L87390 74730
L87350 74810
L87310 74840
L87230 74880
L87110 74880
" />
<path d="M88120 74360
L88040 75000
L87990 75070
L87950 75110
L87870 75150
L87760 75150
L87690 75110
" />
<path d="M88060 74840
L87980 74880
L87830 74880
L87760 74840
L87720 74810
L87700 74730
L87720 74510
L87770 74430
L87810 74390
L87890 74360
L88040 74360
L88110 74390
" />
<path d="M88420 74360
L88540 74880
" />
<path d="M88800 74360
L88540 74880
L88440 75070
L88400 75110
L88320 75150
" />
</g>
<g style="fill:#840000; fill-opacity:0.0; 
stroke:#840000; stroke-width:100; stroke-opacity:1; 
stroke-linecap:round; stroke-linejoin:round;">
</g>
<g style="fill:#840000; fill-opacity:0.0; 
stroke:#840000; stroke-width:60; stroke-opacity:1; 
stroke-linecap:round; stroke-linejoin:round;">
<text x="70080" y="73400"
textLength="10880" font-size="780" lengthAdjust="spacingAndGlyphs"
text-anchor="start" opacity="0">File: DCDCConverter.sch</text>
<path d="M70440 73060
L70250 73060
" />
<path d="M70250 73370
L70250 72780
L70530 72780
" />
<path d="M70750 73370
L70750 72980
" />
<path d="M70750 72780
L70720 72810
L70750 72840
L70780 72810
L70750 72780
L70750 72840
" />
<path d="M71120 73370
L71060 73340
L71030 73290
L71030 72780
" />
<path d="M71570 73340
L71510 73370
L71400 73370
L71340 73340
L71310 73290
L71310 73060
L71340 73010
L71400 72980
L71510 72980
L71570 73010
L71590 73060
L71590 73120
L71310 73180
" />
<path d="M71850 73320
L71880 73340
L71850 73370
L71820 73340
L71850 73320
L71850 73370
" />
<path d="M71850 73010
L71880 73030
L71850 73060
L71820 73030
L71850 73010
L71850 73060
" />
<path d="M72580 73370
L72580 72780
L72720 72780
L72800 72810
L72860 72870
L72890 72920
L72910 73030
L72910 73120
L72890 73230
L72860 73290
L72800 73340
L72720 73370
L72580 73370
" />
<path d="M73500 73320
L73480 73340
L73390 73370
L73340 73370
L73250 73340
L73200 73290
L73170 73230
L73140 73120
L73140 73030
L73170 72920
L73200 72870
L73250 72810
L73340 72780
L73390 72780
L73480 72810
L73500 72840
" />
<path d="M73760 73370
L73760 72780
L73900 72780
L73980 72810
L74040 72870
L74070 72920
L74090 73030
L74090 73120
L74070 73230
L74040 73290
L73980 73340
L73900 73370
L73760 73370
" />
<path d="M74680 73320
L74660 73340
L74570 73370
L74520 73370
L74430 73340
L74380 73290
L74350 73230
L74320 73120
L74320 73030
L74350 72920
L74380 72870
L74430 72810
L74520 72780
L74570 72780
L74660 72810
L74680 72840
" />
<path d="M75270 73320
L75250 73340
L75160 73370
L75110 73370
L75020 73340
L74970 73290
L74940 73230
L74910 73120
L74910 73030
L74940 72920
L74970 72870
L75020 72810
L75110 72780
L75160 72780
L75250 72810
L75270 72840
" />
<path d="M75610 73370
L75560 73340
L75530 73320
L75500 73260
L75500 73090
L75530 73030
L75560 73010
L75610 72980
L75700 72980
L75750 73010
L75780 73030
L75810 73090
L75810 73260
L75780 73320
L75750 73340
L75700 73370
L75610 73370
" />
<path d="M76060 72980
L76060 73370
" />
<path d="M76060 73030
L76090 73010
L76150 72980
L76230 72980
L76290 73010
L76310 73060
L76310 73370
" />
<path d="M76540 72980
L76680 73370
L76820 72980
" />
<path d="M77270 73340
L77210 73370
L77100 73370
L77040 73340
L77020 73290
L77020 73060
L77040 73010
L77100 72980
L77210 72980
L77270 73010
L77300 73060
L77300 73120
L77020 73180
" />
<path d="M77550 73370
L77550 72980
" />
<path d="M77550 73090
L77580 73030
L77610 73010
L77660 72980
L77720 72980
" />
<path d="M77830 72980
L78060 72980
" />
<path d="M77920 72780
L77920 73290
L77940 73340
L78000 73370
L78060 73370
" />
<path d="M78480 73340
L78420 73370
L78310 73370
L78250 73340
L78220 73290
L78220 73060
L78250 73010
L78310 72980
L78420 72980
L78480 73010
L78510 73060
L78510 73120
L78220 73180
" />
<path d="M78760 73370
L78760 72980
" />
<path d="M78760 73090
L78790 73030
L78810 73010
L78870 72980
L78930 72980
" />
<path d="M79120 73320
L79150 73340
L79120 73370
L79100 73340
L79120 73320
L79120 73370
" />
<path d="M79380 73340
L79430 73370
L79550 73370
L79600 73340
L79630 73290
L79630 73260
L79600 73200
L79550 73180
L79460 73180
L79400 73150
L79380 73090
L79380 73060
L79400 73010
L79460 72980
L79550 72980
L79600 73010
" />
<path d="M80140 73340
L80080 73370
L79970 73370
L79910 73340
L79880 73320
L79850 73260
L79850 73090
L79880 73030
L79910 73010
L79970 72980
L80080 72980
L80140 73010
" />
<path d="M80390 73370
L80390 72780
" />
<path d="M80640 73370
L80640 73060
L80610 73010
L80560 72980
L80470 72980
L80420 73010
L80390 73030
" />
</g>
<g style="fill:#840000; fill-opacity:0.0; 
stroke:#840000; stroke-width:100; stroke-opacity:1; 
stroke-linecap:round; stroke-linejoin:round;">
</g>
<g style="fill:#840000; fill-opacity:0.0; 
stroke:#840000; stroke-width:60; stroke-opacity:1; 
stroke-linecap:round; stroke-linejoin:round;">
<path d="M69690 71460
L112210 71460
" />
</g>
<g style="fill:#840000; fill-opacity:0.0; 
stroke:#840000; stroke-width:100; stroke-opacity:1; 
stroke-linecap:round; stroke-linejoin:round;">
</g>
<g style="fill:#840000; fill-opacity:0.0; 
stroke:#840000; stroke-width:60; stroke-opacity:1; 
stroke-linecap:round; stroke-linejoin:round;">
<text x="70080" y="72340"
textLength="3850" font-size="780" lengthAdjust="spacingAndGlyphs"
text-anchor="start" opacity="0">Sheet: /</text>
<path d="M70220 72280
L70300 72310
L70440 72310
L70500 72280
L70530 72260
L70550 72200
L70550 72140
L70530 72090
L70500 72060
L70440 72030
L70330 72000
L70270 71970
L70250 71950
L70220 71890
L70220 71830
L70250 71780
L70270 71750
L70330 71720
L70470 71720
L70550 71750
" />
<path d="M70810 72310
L70810 71720
" />
<path d="M71060 72310
L71060 72000
L71030 71950
L70980 71920
L70890 71920
L70840 71950
L70810 71970
" />
<path d="M71570 72280
L71510 72310
L71400 72310
L71340 72280
L71310 72230
L71310 72000
L71340 71950
L71400 71920
L71510 71920
L71570 71950
L71590 72000
L71590 72060
L71310 72120
" />
<path d="M72070 72280
L72020 72310
L71900 72310
L71850 72280
L71820 72230
L71820 72000
L71850 71950
L71900 71920
L72020 71920
L72070 71950
L72100 72000
L72100 72060
L71820 72120
" />
<path d="M72270 71920
L72490 71920
" />
<path d="M72350 71720
L72350 72230
L72380 72280
L72440 72310
L72490 72310
" />
<path d="M72690 72260
L72720 72280
L72690 72310
L72660 72280
L72690 72260
L72690 72310
" />
<path d="M72690 71950
L72720 71970
L72690 72000
L72660 71970
L72690 71950
L72690 72000
" />
<path d="M73840 71690
L73340 72450
" />
</g>
<g style="fill:#840000; fill-opacity:0.0; 
stroke:#840000; stroke-width:100; stroke-opacity:1; 
stroke-linecap:round; stroke-linejoin:round;">
</g>
<g style="fill:#840000; fill-opacity:0.0; 
stroke:#840000; stroke-width:120; stroke-opacity:1; 
stroke-linecap:round; stroke-linejoin:round;">
<text x="70080" y="71160"
textLength="4640" font-size="780" lengthAdjust="spacingAndGlyphs"
text-anchor="start" opacity="0">COLEKMES</text>
<path d="M70630 71080
L70600 71100
L70520 71130
L70460 71130
L70380 71100
L70320 71050
L70290 70990
L70270 70880
L70270 70790
L70290 70680
L70320 70630
L70380 70570
L70460 70540
L70520 70540
L70600 70570
L70630 70600
" />
<path d="M71000 70540
L71110 70540
L71160 70570
L71220 70630
L71250 70740
L71250 70940
L71220 71050
L71160 71100
L71110 71130
L71000 71130
L70940 71100
L70880 71050
L70860 70940
L70860 70740
L70880 70630
L70940 70570
L71000 70540
" />
<path d="M71780 71130
L71500 71130
L71500 70540
" />
<path d="M71980 70820
L72180 70820
" />
<path d="M72260 71130
L71980 71130
L71980 70540
L72260 70540
" />
<path d="M72510 71130
L72510 70540
" />
<path d="M72850 71130
L72600 70790
" />
<path d="M72850 70540
L72510 70880
" />
<path d="M73100 71130
L73100 70540
L73300 70960
L73500 70540
L73500 71130
" />
<path d="M73780 70820
L73970 70820
" />
<path d="M74060 71130
L73780 71130
L73780 70540
L74060 70540
" />
<path d="M74280 71100
L74370 71130
L74510 71130
L74560 71100
L74590 71080
L74620 71020
L74620 70960
L74590 70910
L74560 70880
L74510 70850
L74400 70820
L74340 70790
L74310 70770
L74280 70710
L74280 70650
L74310 70600
L74340 70570
L74400 70540
L74540 70540
L74620 70570
" />
</g>
<g style="fill:#840000; fill-opacity:0.0; 
stroke:#840000; stroke-width:100; stroke-opacity:1; 
stroke-linecap:round; stroke-linejoin:round;">
</g>
<g style="fill:#840000; fill-opacity:0.0; 
stroke:#840000; stroke-width:60; stroke-opacity:1; 
stroke-linecap:round; stroke-linejoin:round;">
<path d="M77560 75400
L77560 76580
" />
</g>
<g style="fill:#840000; fill-opacity:0.0; 
stroke:#840000; stroke-width:100; stroke-opacity:1; 
stroke-linecap:round; stroke-linejoin:round;">
</g>
<g style="fill:#840000; fill-opacity:0.0; 
stroke:#840000; stroke-width:60; stroke-opacity:1; 
stroke-linecap:round; stroke-linejoin:round;">
<path d="M102760 75400
L102760 77960
" />
</g>
<g style="fill:#840084; fill-opacity:0.0; 
stroke:#840084; stroke-width:60; stroke-opacity:1; 
stroke-linecap:round; stroke-linejoin:round;">
<path d="M11500 9000
L49500 9000
L49500 25500
L11500 25500
L11500 9000
" />
</g>
<g style="fill:#008484; fill-opacity:0.0; 
stroke:#008484; stroke-width:60; stroke-opacity:1; 
stroke-linecap:round; stroke-linejoin:round;">
</g>
<g style="fill:#000000; fill-opacity:0.0; 
stroke:#000000; stroke-width:60; stroke-opacity:1; 
stroke-linecap:round; stroke-linejoin:round;">
<text x="11500" y="8960"
textLength="8180" font-size="660" lengthAdjust="spacingAndGlyphs"
text-anchor="start" opacity="0">Sheet: BuckConverter</text>
<path d="M11620 8910
L11690 8930
L11810 8930
L11860 8910
L11880 8880
L11910 8840
L11910 8790
L11880 8740
L11860 8720
L11810 8690
L11720 8670
L11670 8650
L11640 8620
L11620 8570
L11620 8530
L11640 8480
L11670 8460
L11720 8430
L11830 8430
L11910 8460
" />
<path d="M12120 8930
L12120 8430
" />
<path d="M12330 8930
L12330 8670
L12310 8620
L12260 8600
L12190 8600
L12140 8620
L12120 8650
" />
<path d="M12760 8910
L12720 8930
L12620 8930
L12570 8910
L12550 8860
L12550 8670
L12570 8620
L12620 8600
L12720 8600
L12760 8620
L12790 8670
L12790 8720
L12550 8760
" />
<path d="M13190 8910
L13140 8930
L13050 8930
L13000 8910
L12980 8860
L12980 8670
L13000 8620
L13050 8600
L13140 8600
L13190 8620
L13220 8670
L13220 8720
L12980 8760
" />
<path d="M13360 8600
L13550 8600
" />
<path d="M13430 8430
L13430 8860
L13450 8910
L13500 8930
L13550 8930
" />
<path d="M13720 8880
L13740 8910
L13720 8930
L13690 8910
L13720 8880
L13720 8930
" />
<path d="M13720 8620
L13740 8650
L13720 8670
L13690 8650
L13720 8620
L13720 8670
" />
<path d="M14500 8670
L14570 8690
L14600 8720
L14620 8760
L14620 8840
L14600 8880
L14570 8910
L14530 8930
L14330 8930
L14330 8430
L14500 8430
L14550 8460
L14570 8480
L14600 8530
L14600 8570
L14570 8620
L14550 8650
L14500 8670
L14330 8670
" />
<path d="M15050 8600
L15050 8930
" />
<path d="M14830 8600
L14830 8860
L14860 8910
L14910 8930
L14980 8930
L15030 8910
L15050 8880
" />
<path d="M15500 8910
L15450 8930
L15360 8930
L15310 8910
L15290 8880
L15260 8840
L15260 8690
L15290 8650
L15310 8620
L15360 8600
L15450 8600
L15500 8620
" />
<path d="M15720 8930
L15720 8430
" />
<path d="M15760 8740
L15910 8930
" />
<path d="M15910 8600
L15720 8790
" />
<path d="M16410 8880
L16380 8910
L16310 8930
L16260 8930
L16190 8910
L16140 8860
L16120 8810
L16100 8720
L16100 8650
L16120 8550
L16140 8500
L16190 8460
L16260 8430
L16310 8430
L16380 8460
L16410 8480
" />
<path d="M16690 8930
L16640 8910
L16620 8880
L16600 8840
L16600 8690
L16620 8650
L16640 8620
L16690 8600
L16760 8600
L16810 8620
L16830 8650
L16860 8690
L16860 8840
L16830 8880
L16810 8910
L16760 8930
L16690 8930
" />
<path d="M17070 8600
L17070 8930
" />
<path d="M17070 8650
L17100 8620
L17140 8600
L17220 8600
L17260 8620
L17290 8670
L17290 8930
" />
<path d="M17480 8600
L17600 8930
L17720 8600
" />
<path d="M18100 8910
L18050 8930
L17950 8930
L17910 8910
L17880 8860
L17880 8670
L17910 8620
L17950 8600
L18050 8600
L18100 8620
L18120 8670
L18120 8720
L17880 8760
" />
<path d="M18330 8930
L18330 8600
" />
<path d="M18330 8690
L18360 8650
L18380 8620
L18430 8600
L18480 8600
" />
<path d="M18570 8600
L18760 8600
" />
<path d="M18640 8430
L18640 8860
L18670 8910
L18720 8930
L18760 8930
" />
<path d="M19120 8910
L19070 8930
L18980 8930
L18930 8910
L18910 8860
L18910 8670
L18930 8620
L18980 8600
L19070 8600
L19120 8620
L19140 8670
L19140 8720
L18910 8760
" />
<path d="M19360 8930
L19360 8600
" />
<path d="M19360 8690
L19380 8650
L19410 8620
L19450 8600
L19500 8600
" />
</g>
<g style="fill:#848400; fill-opacity:0.0; 
stroke:#848400; stroke-width:60; stroke-opacity:1; 
stroke-linecap:round; stroke-linejoin:round;">
</g>
<g style="fill:#000000; fill-opacity:0.0; 
stroke:#000000; stroke-width:60; stroke-opacity:1; 
stroke-linecap:round; stroke-linejoin:round;">
<text x="11500" y="26040"
textLength="8890" font-size="660" lengthAdjust="spacingAndGlyphs"
text-anchor="start" opacity="0">File: BuckConverter.sch</text>
<path d="M11810 25750
L11640 25750
" />
<path d="M11640 26010
L11640 25510
L11880 25510
" />
<path d="M12070 26010
L12070 25680
" />
<path d="M12070 25510
L12050 25540
L12070 25560
L12100 25540
L12070 25510
L12070 25560
" />
<path d="M12380 26010
L12330 25990
L12310 25940
L12310 25510
" />
<path d="M12760 25990
L12720 26010
L12620 26010
L12570 25990
L12550 25940
L12550 25750
L12570 25700
L12620 25680
L12720 25680
L12760 25700
L12790 25750
L12790 25800
L12550 25840
" />
<path d="M13000 25960
L13030 25990
L13000 26010
L12980 25990
L13000 25960
L13000 26010
" />
<path d="M13000 25700
L13030 25730
L13000 25750
L12980 25730
L13000 25700
L13000 25750
" />
<path d="M13790 25750
L13860 25770
L13880 25800
L13910 25840
L13910 25920
L13880 25960
L13860 25990
L13810 26010
L13620 26010
L13620 25510
L13790 25510
L13830 25540
L13860 25560
L13880 25610
L13880 25650
L13860 25700
L13830 25730
L13790 25750
L13620 25750
" />
<path d="M14330 25680
L14330 26010
" />
<path d="M14120 25680
L14120 25940
L14140 25990
L14190 26010
L14260 26010
L14310 25990
L14330 25960
" />
<path d="M14790 25990
L14740 26010
L14640 26010
L14600 25990
L14570 25960
L14550 25920
L14550 25770
L14570 25730
L14600 25700
L14640 25680
L14740 25680
L14790 25700
" />
<path d="M15000 26010
L15000 25510
" />
<path d="M15050 25820
L15190 26010
" />
<path d="M15190 25680
L15000 25870
" />
<path d="M15690 25960
L15670 25990
L15600 26010
L15550 26010
L15480 25990
L15430 25940
L15410 25890
L15380 25800
L15380 25730
L15410 25630
L15430 25580
L15480 25540
L15550 25510
L15600 25510
L15670 25540
L15690 25560
" />
<path d="M15980 26010
L15930 25990
L15910 25960
L15880 25920
L15880 25770
L15910 25730
L15930 25700
L15980 25680
L16050 25680
L16100 25700
L16120 25730
L16140 25770
L16140 25920
L16120 25960
L16100 25990
L16050 26010
L15980 26010
" />
<path d="M16360 25680
L16360 26010
" />
<path d="M16360 25730
L16380 25700
L16430 25680
L16500 25680
L16550 25700
L16570 25750
L16570 26010
" />
<path d="M16760 25680
L16880 26010
L17000 25680
" />
<path d="M17380 25990
L17330 26010
L17240 26010
L17190 25990
L17170 25940
L17170 25750
L17190 25700
L17240 25680
L17330 25680
L17380 25700
L17410 25750
L17410 25800
L17170 25840
" />
<path d="M17620 26010
L17620 25680
" />
<path d="M17620 25770
L17640 25730
L17670 25700
L17720 25680
L17760 25680
" />
<path d="M17860 25680
L18050 25680
" />
<path d="M17930 25510
L17930 25940
L17950 25990
L18000 26010
L18050 26010
" />
<path d="M18410 25990
L18360 26010
L18260 26010
L18220 25990
L18190 25940
L18190 25750
L18220 25700
L18260 25680
L18360 25680
L18410 25700
L18430 25750
L18430 25800
L18190 25840
" />
<path d="M18640 26010
L18640 25680
" />
<path d="M18640 25770
L18670 25730
L18690 25700
L18740 25680
L18790 25680
" />
<path d="M18950 25960
L18980 25990
L18950 26010
L18930 25990
L18950 25960
L18950 26010
" />
<path d="M19170 25990
L19220 26010
L19310 26010
L19360 25990
L19380 25940
L19380 25920
L19360 25870
L19310 25840
L19240 25840
L19190 25820
L19170 25770
L19170 25750
L19190 25700
L19240 25680
L19310 25680
L19360 25700
" />
<path d="M19810 25990
L19760 26010
L19670 26010
L19620 25990
L19600 25960
L19570 25920
L19570 25770
L19600 25730
L19620 25700
L19670 25680
L19760 25680
L19810 25700
" />
<path d="M20030 26010
L20030 25510
" />
<path d="M20240 26010
L20240 25750
L20220 25700
L20170 25680
L20100 25680
L20050 25700
L20030 25730
" />
</g>
<g style="fill:#840084; fill-opacity:0.0; 
stroke:#840084; stroke-width:60; stroke-opacity:1; 
stroke-linecap:round; stroke-linejoin:round;">
<path d="M60000 20500
L89500 20500
L89500 32500
L60000 32500
L60000 20500
" />
</g>
<g style="fill:#008484; fill-opacity:0.0; 
stroke:#008484; stroke-width:60; stroke-opacity:1; 
stroke-linecap:round; stroke-linejoin:round;">
</g>
<g style="fill:#000000; fill-opacity:0.0; 
stroke:#000000; stroke-width:60; stroke-opacity:1; 
stroke-linecap:round; stroke-linejoin:round;">
<text x="60000" y="20460"
textLength="8390" font-size="660" lengthAdjust="spacingAndGlyphs"
text-anchor="start" opacity="0">Sheet: BoostConverter</text>
<path d="M60120 20410
L60190 20430
L60310 20430
L60360 20410
L60380 20380
L60410 20340
L60410 20290
L60380 20240
L60360 20220
L60310 20190
L60220 20170
L60170 20150
L60140 20120
L60120 20070
L60120 20030
L60140 19980
L60170 19960
L60220 19930
L60330 19930
L60410 19960
" />
<path d="M60620 20430
L60620 19930
" />
<path d="M60830 20430
L60830 20170
L60810 20120
L60760 20100
L60690 20100
L60640 20120
L60620 20150
" />
<path d="M61260 20410
L61220 20430
L61120 20430
L61070 20410
L61050 20360
L61050 20170
L61070 20120
L61120 20100
L61220 20100
L61260 20120
L61290 20170
L61290 20220
L61050 20260
" />
<path d="M61690 20410
L61640 20430
L61550 20430
L61500 20410
L61480 20360
L61480 20170
L61500 20120
L61550 20100
L61640 20100
L61690 20120
L61720 20170
L61720 20220
L61480 20260
" />
<path d="M61860 20100
L62050 20100
" />
<path d="M61930 19930
L61930 20360
L61950 20410
L62000 20430
L62050 20430
" />
<path d="M62220 20380
L62240 20410
L62220 20430
L62190 20410
L62220 20380
L62220 20430
" />
<path d="M62220 20120
L62240 20150
L62220 20170
L62190 20150
L62220 20120
L62220 20170
" />
<path d="M63000 20170
L63070 20190
L63100 20220
L63120 20260
L63120 20340
L63100 20380
L63070 20410
L63030 20430
L62830 20430
L62830 19930
L63000 19930
L63050 19960
L63070 19980
L63100 20030
L63100 20070
L63070 20120
L63050 20150
L63000 20170
L62830 20170
" />
<path d="M63410 20430
L63360 20410
L63330 20380
L63310 20340
L63310 20190
L63330 20150
L63360 20120
L63410 20100
L63480 20100
L63530 20120
L63550 20150
L63570 20190
L63570 20340
L63550 20380
L63530 20410
L63480 20430
L63410 20430
" />
<path d="M63860 20430
L63810 20410
L63790 20380
L63760 20340
L63760 20190
L63790 20150
L63810 20120
L63860 20100
L63930 20100
L63980 20120
L64000 20150
L64030 20190
L64030 20340
L64000 20380
L63980 20410
L63930 20430
L63860 20430
" />
<path d="M64220 20410
L64260 20430
L64360 20430
L64410 20410
L64430 20360
L64430 20340
L64410 20290
L64360 20260
L64290 20260
L64240 20240
L64220 20190
L64220 20170
L64240 20120
L64290 20100
L64360 20100
L64410 20120
" />
<path d="M64570 20100
L64760 20100
" />
<path d="M64640 19930
L64640 20360
L64670 20410
L64720 20430
L64760 20430
" />
<path d="M65220 20380
L65190 20410
L65120 20430
L65070 20430
L65000 20410
L64950 20360
L64930 20310
L64910 20220
L64910 20150
L64930 20050
L64950 20000
L65000 19960
L65070 19930
L65120 19930
L65190 19960
L65220 19980
" />
<path d="M65500 20430
L65450 20410
L65430 20380
L65410 20340
L65410 20190
L65430 20150
L65450 20120
L65500 20100
L65570 20100
L65620 20120
L65640 20150
L65670 20190
L65670 20340
L65640 20380
L65620 20410
L65570 20430
L65500 20430
" />
<path d="M65880 20100
L65880 20430
" />
<path d="M65880 20150
L65910 20120
L65950 20100
L66030 20100
L66070 20120
L66100 20170
L66100 20430
" />
<path d="M66290 20100
L66410 20430
L66530 20100
" />
<path d="M66910 20410
L66860 20430
L66760 20430
L66720 20410
L66690 20360
L66690 20170
L66720 20120
L66760 20100
L66860 20100
L66910 20120
L66930 20170
L66930 20220
L66690 20260
" />
<path d="M67140 20430
L67140 20100
" />
<path d="M67140 20190
L67170 20150
L67190 20120
L67240 20100
L67290 20100
" />
<path d="M67380 20100
L67570 20100
" />
<path d="M67450 19930
L67450 20360
L67480 20410
L67530 20430
L67570 20430
" />
<path d="M67930 20410
L67880 20430
L67790 20430
L67740 20410
L67720 20360
L67720 20170
L67740 20120
L67790 20100
L67880 20100
L67930 20120
L67950 20170
L67950 20220
L67720 20260
" />
<path d="M68170 20430
L68170 20100
" />
<path d="M68170 20190
L68190 20150
L68220 20120
L68260 20100
L68310 20100
" />
</g>
<g style="fill:#848400; fill-opacity:0.0; 
stroke:#848400; stroke-width:60; stroke-opacity:1; 
stroke-linecap:round; stroke-linejoin:round;">
</g>
<g style="fill:#000000; fill-opacity:0.0; 
stroke:#000000; stroke-width:60; stroke-opacity:1; 
stroke-linecap:round; stroke-linejoin:round;">
<text x="60000" y="33040"
textLength="9200" font-size="660" lengthAdjust="spacingAndGlyphs"
text-anchor="start" opacity="0">File: BoostConverter.sch</text>
<path d="M60310 32750
L60140 32750
" />
<path d="M60140 33010
L60140 32510
L60380 32510
" />
<path d="M60570 33010
L60570 32680
" />
<path d="M60570 32510
L60550 32540
L60570 32560
L60600 32540
L60570 32510
L60570 32560
" />
<path d="M60880 33010
L60830 32990
L60810 32940
L60810 32510
" />
<path d="M61260 32990
L61220 33010
L61120 33010
L61070 32990
L61050 32940
L61050 32750
L61070 32700
L61120 32680
L61220 32680
L61260 32700
L61290 32750
L61290 32800
L61050 32840
" />
<path d="M61500 32960
L61530 32990
L61500 33010
L61480 32990
L61500 32960
L61500 33010
" />
<path d="M61500 32700
L61530 32730
L61500 32750
L61480 32730
L61500 32700
L61500 32750
" />
<path d="M62290 32750
L62360 32770
L62380 32800
L62410 32840
L62410 32920
L62380 32960
L62360 32990
L62310 33010
L62120 33010
L62120 32510
L62290 32510
L62330 32540
L62360 32560
L62380 32610
L62380 32650
L62360 32700
L62330 32730
L62290 32750
L62120 32750
" />
<path d="M62690 33010
L62640 32990
L62620 32960
L62600 32920
L62600 32770
L62620 32730
L62640 32700
L62690 32680
L62760 32680
L62810 32700
L62830 32730
L62860 32770
L62860 32920
L62830 32960
L62810 32990
L62760 33010
L62690 33010
" />
<path d="M63140 33010
L63100 32990
L63070 32960
L63050 32920
L63050 32770
L63070 32730
L63100 32700
L63140 32680
L63220 32680
L63260 32700
L63290 32730
L63310 32770
L63310 32920
L63290 32960
L63260 32990
L63220 33010
L63140 33010
" />
<path d="M63500 32990
L63550 33010
L63640 33010
L63690 32990
L63720 32940
L63720 32920
L63690 32870
L63640 32840
L63570 32840
L63530 32820
L63500 32770
L63500 32750
L63530 32700
L63570 32680
L63640 32680
L63690 32700
" />
<path d="M63860 32680
L64050 32680
" />
<path d="M63930 32510
L63930 32940
L63950 32990
L64000 33010
L64050 33010
" />
<path d="M64500 32960
L64480 32990
L64410 33010
L64360 33010
L64290 32990
L64240 32940
L64220 32890
L64190 32800
L64190 32730
L64220 32630
L64240 32580
L64290 32540
L64360 32510
L64410 32510
L64480 32540
L64500 32560
" />
<path d="M64790 33010
L64740 32990
L64720 32960
L64690 32920
L64690 32770
L64720 32730
L64740 32700
L64790 32680
L64860 32680
L64910 32700
L64930 32730
L64950 32770
L64950 32920
L64930 32960
L64910 32990
L64860 33010
L64790 33010
" />
<path d="M65170 32680
L65170 33010
" />
<path d="M65170 32730
L65190 32700
L65240 32680
L65310 32680
L65360 32700
L65380 32750
L65380 33010
" />
<path d="M65570 32680
L65690 33010
L65810 32680
" />
<path d="M66190 32990
L66140 33010
L66050 33010
L66000 32990
L65980 32940
L65980 32750
L66000 32700
L66050 32680
L66140 32680
L66190 32700
L66220 32750
L66220 32800
L65980 32840
" />
<path d="M66430 33010
L66430 32680
" />
<path d="M66430 32770
L66450 32730
L66480 32700
L66530 32680
L66570 32680
" />
<path d="M66670 32680
L66860 32680
" />
<path d="M66740 32510
L66740 32940
L66760 32990
L66810 33010
L66860 33010
" />
<path d="M67220 32990
L67170 33010
L67070 33010
L67030 32990
L67000 32940
L67000 32750
L67030 32700
L67070 32680
L67170 32680
L67220 32700
L67240 32750
L67240 32800
L67000 32840
" />
<path d="M67450 33010
L67450 32680
" />
<path d="M67450 32770
L67480 32730
L67500 32700
L67550 32680
L67600 32680
" />
<path d="M67760 32960
L67790 32990
L67760 33010
L67740 32990
L67760 32960
L67760 33010
" />
<path d="M67980 32990
L68030 33010
L68120 33010
L68170 32990
L68190 32940
L68190 32920
L68170 32870
L68120 32840
L68050 32840
L68000 32820
L67980 32770
L67980 32750
L68000 32700
L68050 32680
L68120 32680
L68170 32700
" />
<path d="M68620 32990
L68570 33010
L68480 33010
L68430 32990
L68410 32960
L68380 32920
L68380 32770
L68410 32730
L68430 32700
L68480 32680
L68570 32680
L68620 32700
" />
<path d="M68830 33010
L68830 32510
" />
<path d="M69050 33010
L69050 32750
L69030 32700
L68980 32680
L68910 32680
L68860 32700
L68830 32730
" />
</g>
<g style="fill:#840084; fill-opacity:0.0; 
stroke:#840084; stroke-width:60; stroke-opacity:1; 
stroke-linecap:round; stroke-linejoin:round;">
<path d="M11500 29000
L32000 29000
L32000 36000
L11500 36000
L11500 29000
" />
</g>
<g style="fill:#008484; fill-opacity:0.0; 
stroke:#008484; stroke-width:60; stroke-opacity:1; 
stroke-linecap:round; stroke-linejoin:round;">
</g>
<g style="fill:#000000; fill-opacity:0.0; 
stroke:#000000; stroke-width:60; stroke-opacity:1; 
stroke-linecap:round; stroke-linejoin:round;">
<text x="11500" y="28960"
textLength="10180" font-size="660" lengthAdjust="spacingAndGlyphs"
text-anchor="start" opacity="0">Sheet: BuckBoostConverter</text>
<path d="M11620 28910
L11690 28930
L11810 28930
L11860 28910
L11880 28880
L11910 28840
L11910 28790
L11880 28740
L11860 28720
L11810 28690
L11720 28670
L11670 28650
L11640 28620
L11620 28570
L11620 28530
L11640 28480
L11670 28460
L11720 28430
L11830 28430
L11910 28460
" />
<path d="M12120 28930
L12120 28430
" />
<path d="M12330 28930
L12330 28670
L12310 28620
L12260 28600
L12190 28600
L12140 28620
L12120 28650
" />
<path d="M12760 28910
L12720 28930
L12620 28930
L12570 28910
L12550 28860
L12550 28670
L12570 28620
L12620 28600
L12720 28600
L12760 28620
L12790 28670
L12790 28720
L12550 28760
" />
<path d="M13190 28910
L13140 28930
L13050 28930
L13000 28910
L12980 28860
L12980 28670
L13000 28620
L13050 28600
L13140 28600
L13190 28620
L13220 28670
L13220 28720
L12980 28760
" />
<path d="M13360 28600
L13550 28600
" />
<path d="M13430 28430
L13430 28860
L13450 28910
L13500 28930
L13550 28930
" />
<path d="M13720 28880
L13740 28910
L13720 28930
L13690 28910
L13720 28880
L13720 28930
" />
<path d="M13720 28620
L13740 28650
L13720 28670
L13690 28650
L13720 28620
L13720 28670
" />
<path d="M14500 28670
L14570 28690
L14600 28720
L14620 28760
L14620 28840
L14600 28880
L14570 28910
L14530 28930
L14330 28930
L14330 28430
L14500 28430
L14550 28460
L14570 28480
L14600 28530
L14600 28570
L14570 28620
L14550 28650
L14500 28670
L14330 28670
" />
<path d="M15050 28600
L15050 28930
" />
<path d="M14830 28600
L14830 28860
L14860 28910
L14910 28930
L14980 28930
L15030 28910
L15050 28880
" />
<path d="M15500 28910
L15450 28930
L15360 28930
L15310 28910
L15290 28880
L15260 28840
L15260 28690
L15290 28650
L15310 28620
L15360 28600
L15450 28600
L15500 28620
" />
<path d="M15720 28930
L15720 28430
" />
<path d="M15760 28740
L15910 28930
" />
<path d="M15910 28600
L15720 28790
" />
<path d="M16290 28670
L16360 28690
L16380 28720
L16410 28760
L16410 28840
L16380 28880
L16360 28910
L16310 28930
L16120 28930
L16120 28430
L16290 28430
L16330 28460
L16360 28480
L16380 28530
L16380 28570
L16360 28620
L16330 28650
L16290 28670
L16120 28670
" />
<path d="M16690 28930
L16640 28910
L16620 28880
L16600 28840
L16600 28690
L16620 28650
L16640 28620
L16690 28600
L16760 28600
L16810 28620
L16830 28650
L16860 28690
L16860 28840
L16830 28880
L16810 28910
L16760 28930
L16690 28930
" />
<path d="M17140 28930
L17100 28910
L17070 28880
L17050 28840
L17050 28690
L17070 28650
L17100 28620
L17140 28600
L17220 28600
L17260 28620
L17290 28650
L17310 28690
L17310 28840
L17290 28880
L17260 28910
L17220 28930
L17140 28930
" />
<path d="M17500 28910
L17550 28930
L17640 28930
L17690 28910
L17720 28860
L17720 28840
L17690 28790
L17640 28760
L17570 28760
L17530 28740
L17500 28690
L17500 28670
L17530 28620
L17570 28600
L17640 28600
L17690 28620
" />
<path d="M17860 28600
L18050 28600
" />
<path d="M17930 28430
L17930 28860
L17950 28910
L18000 28930
L18050 28930
" />
<path d="M18500 28880
L18480 28910
L18410 28930
L18360 28930
L18290 28910
L18240 28860
L18220 28810
L18190 28720
L18190 28650
L18220 28550
L18240 28500
L18290 28460
L18360 28430
L18410 28430
L18480 28460
L18500 28480
" />
<path d="M18790 28930
L18740 28910
L18720 28880
L18690 28840
L18690 28690
L18720 28650
L18740 28620
L18790 28600
L18860 28600
L18910 28620
L18930 28650
L18950 28690
L18950 28840
L18930 28880
L18910 28910
L18860 28930
L18790 28930
" />
<path d="M19170 28600
L19170 28930
" />
<path d="M19170 28650
L19190 28620
L19240 28600
L19310 28600
L19360 28620
L19380 28670
L19380 28930
" />
<path d="M19570 28600
L19690 28930
L19810 28600
" />
<path d="M20190 28910
L20140 28930
L20050 28930
L20000 28910
L19980 28860
L19980 28670
L20000 28620
L20050 28600
L20140 28600
L20190 28620
L20220 28670
L20220 28720
L19980 28760
" />
<path d="M20430 28930
L20430 28600
" />
<path d="M20430 28690
L20450 28650
L20480 28620
L20530 28600
L20570 28600
" />
<path d="M20670 28600
L20860 28600
" />
<path d="M20740 28430
L20740 28860
L20760 28910
L20810 28930
L20860 28930
" />
<path d="M21220 28910
L21170 28930
L21070 28930
L21030 28910
L21000 28860
L21000 28670
L21030 28620
L21070 28600
L21170 28600
L21220 28620
L21240 28670
L21240 28720
L21000 28760
" />
<path d="M21450 28930
L21450 28600
" />
<path d="M21450 28690
L21480 28650
L21500 28620
L21550 28600
L21600 28600
" />
</g>
<g style="fill:#848400; fill-opacity:0.0; 
stroke:#848400; stroke-width:60; stroke-opacity:1; 
stroke-linecap:round; stroke-linejoin:round;">
</g>
<g style="fill:#000000; fill-opacity:0.0; 
stroke:#000000; stroke-width:60; stroke-opacity:1; 
stroke-linecap:round; stroke-linejoin:round;">
<text x="11500" y="36540"
textLength="10990" font-size="660" lengthAdjust="spacingAndGlyphs"
text-anchor="start" opacity="0">File: BuckBoostConverter.sch</text>
<path d="M11810 36250
L11640 36250
" />
<path d="M11640 36510
L11640 36010
L11880 36010
" />
<path d="M12070 36510
L12070 36180
" />
<path d="M12070 36010
L12050 36040
L12070 36060
L12100 36040
L12070 36010
L12070 36060
" />
<path d="M12380 36510
L12330 36490
L12310 36440
L12310 36010
" />
<path d="M12760 36490
L12720 36510
L12620 36510
L12570 36490
L12550 36440
L12550 36250
L12570 36200
L12620 36180
L12720 36180
L12760 36200
L12790 36250
L12790 36300
L12550 36340
" />
<path d="M13000 36460
L13030 36490
L13000 36510
L12980 36490
L13000 36460
L13000 36510
" />
<path d="M13000 36200
L13030 36230
L13000 36250
L12980 36230
L13000 36200
L13000 36250
" />
<path d="M13790 36250
L13860 36270
L13880 36300
L13910 36340
L13910 36420
L13880 36460
L13860 36490
L13810 36510
L13620 36510
L13620 36010
L13790 36010
L13830 36040
L13860 36060
L13880 36110
L13880 36150
L13860 36200
L13830 36230
L13790 36250
L13620 36250
" />
<path d="M14330 36180
L14330 36510
" />
<path d="M14120 36180
L14120 36440
L14140 36490
L14190 36510
L14260 36510
L14310 36490
L14330 36460
" />
<path d="M14790 36490
L14740 36510
L14640 36510
L14600 36490
L14570 36460
L14550 36420
L14550 36270
L14570 36230
L14600 36200
L14640 36180
L14740 36180
L14790 36200
" />
<path d="M15000 36510
L15000 36010
" />
<path d="M15050 36320
L15190 36510
" />
<path d="M15190 36180
L15000 36370
" />
<path d="M15570 36250
L15640 36270
L15670 36300
L15690 36340
L15690 36420
L15670 36460
L15640 36490
L15600 36510
L15410 36510
L15410 36010
L15570 36010
L15620 36040
L15640 36060
L15670 36110
L15670 36150
L15640 36200
L15620 36230
L15570 36250
L15410 36250
" />
<path d="M15980 36510
L15930 36490
L15910 36460
L15880 36420
L15880 36270
L15910 36230
L15930 36200
L15980 36180
L16050 36180
L16100 36200
L16120 36230
L16140 36270
L16140 36420
L16120 36460
L16100 36490
L16050 36510
L15980 36510
" />
<path d="M16430 36510
L16380 36490
L16360 36460
L16330 36420
L16330 36270
L16360 36230
L16380 36200
L16430 36180
L16500 36180
L16550 36200
L16570 36230
L16600 36270
L16600 36420
L16570 36460
L16550 36490
L16500 36510
L16430 36510
" />
<path d="M16790 36490
L16830 36510
L16930 36510
L16980 36490
L17000 36440
L17000 36420
L16980 36370
L16930 36340
L16860 36340
L16810 36320
L16790 36270
L16790 36250
L16810 36200
L16860 36180
L16930 36180
L16980 36200
" />
<path d="M17140 36180
L17330 36180
" />
<path d="M17220 36010
L17220 36440
L17240 36490
L17290 36510
L17330 36510
" />
<path d="M17790 36460
L17760 36490
L17690 36510
L17640 36510
L17570 36490
L17530 36440
L17500 36390
L17480 36300
L17480 36230
L17500 36130
L17530 36080
L17570 36040
L17640 36010
L17690 36010
L17760 36040
L17790 36060
" />
<path d="M18070 36510
L18030 36490
L18000 36460
L17980 36420
L17980 36270
L18000 36230
L18030 36200
L18070 36180
L18140 36180
L18190 36200
L18220 36230
L18240 36270
L18240 36420
L18220 36460
L18190 36490
L18140 36510
L18070 36510
" />
<path d="M18450 36180
L18450 36510
" />
<path d="M18450 36230
L18480 36200
L18530 36180
L18600 36180
L18640 36200
L18670 36250
L18670 36510
" />
<path d="M18860 36180
L18980 36510
L19100 36180
" />
<path d="M19480 36490
L19430 36510
L19330 36510
L19290 36490
L19260 36440
L19260 36250
L19290 36200
L19330 36180
L19430 36180
L19480 36200
L19500 36250
L19500 36300
L19260 36340
" />
<path d="M19720 36510
L19720 36180
" />
<path d="M19720 36270
L19740 36230
L19760 36200
L19810 36180
L19860 36180
" />
<path d="M19950 36180
L20140 36180
" />
<path d="M20030 36010
L20030 36440
L20050 36490
L20100 36510
L20140 36510
" />
<path d="M20500 36490
L20450 36510
L20360 36510
L20310 36490
L20290 36440
L20290 36250
L20310 36200
L20360 36180
L20450 36180
L20500 36200
L20530 36250
L20530 36300
L20290 36340
" />
<path d="M20740 36510
L20740 36180
" />
<path d="M20740 36270
L20760 36230
L20790 36200
L20830 36180
L20880 36180
" />
<path d="M21050 36460
L21070 36490
L21050 36510
L21030 36490
L21050 36460
L21050 36510
" />
<path d="M21260 36490
L21310 36510
L21410 36510
L21450 36490
L21480 36440
L21480 36420
L21450 36370
L21410 36340
L21330 36340
L21290 36320
L21260 36270
L21260 36250
L21290 36200
L21330 36180
L21410 36180
L21450 36200
" />
<path d="M21910 36490
L21860 36510
L21760 36510
L21720 36490
L21690 36460
L21670 36420
L21670 36270
L21690 36230
L21720 36200
L21760 36180
L21860 36180
L21910 36200
" />
<path d="M22120 36510
L22120 36010
" />
<path d="M22330 36510
L22330 36250
L22310 36200
L22260 36180
L22190 36180
L22140 36200
L22120 36230
" />
</g>
<g style="fill:#840084; fill-opacity:0.0; 
stroke:#840084; stroke-width:60; stroke-opacity:1; 
stroke-linecap:round; stroke-linejoin:round;">
</g> 
</svg>
